<?xml version="1.0" standalone="no"?>
<!DOCTYPE svg PUBLIC "-//W3C//DTD SVG 20010904//EN"
 "http://www.w3.org/TR/2001/REC-SVG-20010904/DTD/svg10.dtd">
<svg version="1.0" xmlns="http://www.w3.org/2000/svg"
 width="217.000000pt" height="219.000000pt" viewBox="0 0 217.000000 219.000000"
 preserveAspectRatio="xMidYMid meet">
<metadata>
Created by potrace 1.16, written by Peter Selinger 2001-2019
</metadata>
<g transform="translate(0.000000,219.000000) scale(0.100000,-0.100000)"
fill="#000000" stroke="none">
<path d="M98 2063 l-28 -4 0 -230 0 -229 235 0 235 0 0 235 0 235 -207 -1
c-115 -1 -220 -4 -235 -6z m372 -223 l0 -170 -165 0 -165 0 0 170 0 170 165 0
165 0 0 -170z"/>
<path d="M200 1840 l0 -101 103 3 102 3 0 95 0 95 -102 3 -103 3 0 -101z"/>
<path d="M740 1970 l0 -100 -35 0 -35 0 0 70 0 70 -30 0 -30 0 0 -240 0 -240
30 0 c27 0 30 -3 30 -30 l0 -30 -65 0 -65 0 0 30 0 30 -100 0 -100 0 0 -30 0
-30 100 0 100 0 0 -35 0 -34 -67 -3 c-60 -3 -68 -5 -69 -23 -1 -11 -2 -26 -3
-32 -1 -10 -28 -13 -101 -13 l-100 0 0 35 c0 33 2 35 35 35 33 0 35 2 35 35
l0 35 -65 0 -65 0 0 30 c0 28 -3 30 -35 30 l-35 0 0 -64 0 -65 33 -3 c28 -3
32 -7 35 -35 3 -29 7 -33 32 -33 25 0 29 -4 32 -32 l3 -33 68 -3 c67 -3 67 -3
67 -32 l0 -30 -70 0 -70 0 0 -70 0 -70 35 0 c33 0 35 2 35 35 0 33 2 35 35 35
l35 0 0 -65 0 -64 -68 -3 -67 -3 -3 -32 c-3 -29 -7 -33 -33 -33 l-29 0 0 65 0
65 -35 0 -35 0 0 -65 0 -65 35 0 c33 0 35 -2 35 -35 0 -33 -2 -35 -35 -35 -33
0 -35 -2 -35 -36 0 -34 1 -35 33 -32 28 3 32 7 35 36 3 28 7 32 33 32 27 0 29
3 29 35 0 33 2 35 35 35 l35 0 0 -70 0 -70 35 0 c32 0 35 -2 35 -30 l0 -30
-135 0 -135 0 0 -35 0 -35 270 0 270 0 0 100 0 100 -70 0 -70 0 0 35 c0 33 2
35 35 35 33 0 35 2 35 36 0 34 1 35 33 32 28 -3 32 -7 35 -35 3 -29 7 -33 33
-33 l29 0 0 -135 0 -135 35 0 35 0 0 -70 0 -70 -65 0 -65 0 0 -65 0 -65 65 0
64 0 3 -67 3 -68 33 -3 c28 -3 32 -7 32 -33 0 -27 3 -29 35 -29 33 0 35 -2 35
-35 l0 -35 65 0 65 0 0 64 0 65 -32 3 c-29 3 -33 7 -36 36 -3 31 -2 32 32 32
l36 0 0 70 0 70 35 0 35 0 0 -70 0 -70 35 0 c33 0 35 -2 35 -35 0 -33 -2 -35
-35 -35 l-35 0 0 -65 0 -65 100 0 100 0 0 64 0 65 33 3 c28 3 32 7 35 36 3 29
6 32 38 32 32 0 34 -2 34 -35 0 -32 2 -35 30 -35 27 0 30 -3 30 -30 l0 -30
-65 0 -65 0 0 -35 0 -35 100 0 100 0 0 35 c0 33 2 35 35 35 32 0 35 2 35 30
l0 30 -70 0 -70 0 0 35 c0 33 2 35 35 35 33 0 35 2 35 35 0 33 2 35 35 35 33
0 35 -2 35 -35 0 -33 2 -35 35 -35 l35 0 0 -100 0 -100 30 0 30 0 0 65 0 65
35 0 c32 0 35 -2 35 -30 l0 -30 68 0 67 0 0 30 1 30 -68 0 -68 0 0 35 c0 33 2
35 35 35 33 0 35 2 35 35 l0 35 65 0 65 0 0 35 0 35 -65 0 -65 0 0 30 c0 27 3
30 30 30 21 0 30 5 31 18 1 9 2 24 3 32 0 9 13 16 34 18 29 3 32 6 32 38 l0
34 -65 0 -65 0 0 35 0 35 65 0 65 0 0 30 c0 26 -3 30 -29 30 -52 0 -54 63 -3
68 29 3 32 6 32 38 0 34 -1 35 -32 32 -25 -2 -33 -8 -34 -23 -1 -11 -2 -26 -3
-32 -1 -7 -14 -13 -31 -13 -28 0 -30 3 -30 35 0 33 -2 35 -35 35 -33 0 -35 -2
-35 -35 0 -33 -2 -35 -35 -35 -33 0 -35 2 -35 35 0 32 -2 35 -30 35 -28 0 -30
3 -30 35 l0 35 100 0 100 0 0 30 0 30 -100 0 -100 0 0 -30 c0 -28 -3 -30 -35
-30 l-35 0 0 65 0 65 -100 0 -100 0 0 -35 0 -35 65 0 65 0 0 -30 0 -30 -100 0
-100 0 0 -34 c0 -32 3 -35 33 -38 28 -3 32 -7 35 -35 3 -29 7 -33 33 -33 27 0
29 3 29 35 0 33 2 35 35 35 33 0 35 2 35 35 0 33 2 35 35 35 33 0 35 -2 35
-34 0 -32 3 -35 33 -38 28 -3 32 -7 35 -35 3 -29 7 -33 33 -33 l29 0 0 -65 0
-65 -30 0 c-27 0 -30 3 -30 30 0 28 -3 30 -35 30 -33 0 -35 2 -35 35 0 33 -2
35 -35 35 -33 0 -35 -2 -35 -35 0 -33 -2 -35 -35 -35 -32 0 -35 -2 -35 -30 0
-27 -3 -30 -30 -30 -27 0 -30 3 -30 30 0 28 -3 30 -35 30 -33 0 -35 2 -35 35
0 33 -2 35 -35 35 -33 0 -35 -2 -35 -35 0 -33 -2 -35 -35 -35 -32 0 -35 -2
-35 -30 0 -27 -3 -30 -30 -30 l-30 0 0 65 0 65 -35 0 c-33 0 -35 2 -35 35 0
33 2 35 35 35 33 0 35 2 35 35 0 32 2 35 30 35 28 0 30 -3 30 -35 0 -33 2 -35
35 -35 l35 0 0 100 0 100 35 0 c33 0 35 2 35 35 0 33 -2 35 -35 35 -33 0 -35
-2 -35 -35 0 -33 -2 -35 -35 -35 -33 0 -35 2 -35 35 0 32 -2 35 -30 35 l-30 0
0 65 0 65 30 0 30 0 0 70 0 70 35 0 35 0 0 -70 0 -70 35 0 c33 0 35 2 35 35 0
33 2 35 35 35 33 0 35 -2 35 -35 0 -32 2 -35 30 -35 28 0 30 3 30 35 0 33 2
35 35 35 33 0 35 2 35 35 0 33 2 35 35 35 l35 0 0 -70 0 -70 -35 0 c-33 0 -35
-2 -35 -35 l0 -35 -65 0 -65 0 0 -30 0 -30 135 0 135 0 0 135 0 135 100 0 101
0 -3 -102 -3 -103 -67 -3 -68 -3 0 -64 0 -65 35 0 c33 0 35 2 35 35 0 33 2 35
35 35 33 0 35 -2 35 -35 0 -32 2 -35 30 -35 21 0 30 -5 31 -17 1 -10 2 -25 3
-33 0 -9 13 -16 34 -18 31 -3 32 -2 32 32 0 33 -2 36 -30 36 -17 0 -30 6 -31
13 -1 6 -2 51 -4 100 l-2 87 33 0 c32 0 34 2 34 35 0 33 -2 35 -34 35 l-33 0
2 53 c1 28 0 58 -3 65 -3 9 -60 12 -238 12 l-234 0 0 70 0 70 -30 0 c-28 0
-30 3 -30 35 0 32 2 35 30 35 27 0 30 3 30 30 0 27 -3 30 -30 30 -27 0 -30 -3
-30 -30 l0 -30 -105 0 -105 0 0 65 0 65 -30 0 -30 0 0 -65 0 -65 -70 0 -70 0
0 30 c0 28 3 30 35 30 33 0 35 2 35 35 0 33 -2 35 -35 35 -33 0 -35 -2 -35
-35 l0 -35 -135 0 -135 0 0 35 0 35 99 0 100 0 3 33 3 32 68 3 67 3 0 34 0 35
65 0 65 0 0 -35 c0 -33 2 -35 34 -35 32 0 35 3 38 33 l3 32 98 3 97 3 0 29 0
30 -200 0 -200 0 0 -29 c0 -34 -9 -38 -86 -33 -52 4 -54 5 -54 33 l0 29 -100
0 -100 0 0 -100z m200 -265 c0 -33 2 -35 35 -35 33 0 35 -2 35 -35 0 -33 2
-35 35 -35 33 0 35 2 35 35 0 33 2 35 35 35 33 0 35 2 35 35 0 32 2 35 30 35
28 0 30 -3 30 -35 0 -33 2 -35 35 -35 33 0 35 -2 35 -35 0 -33 2 -35 35 -35
33 0 35 2 35 35 0 33 2 35 35 35 l35 0 0 -70 0 -70 30 0 30 0 0 -65 0 -65 -29
0 c-26 0 -30 4 -33 33 -3 28 -7 32 -35 35 -29 3 -33 7 -33 33 l0 29 -70 0 -70
0 0 -30 c0 -27 -3 -30 -30 -30 l-30 0 0 -70 0 -70 -35 0 c-33 0 -35 2 -35 35
0 33 -2 35 -35 35 l-35 0 0 -71 0 -70 -32 3 -33 3 -3 68 c-3 67 -3 67 -32 67
-28 0 -30 -3 -30 -35 0 -33 -2 -35 -35 -35 l-35 0 0 -200 0 -200 35 0 c33 0
35 2 35 35 l0 35 65 0 65 0 0 -35 0 -35 -65 0 -65 0 0 -35 0 -35 100 0 100 0
0 -65 0 -65 -35 0 c-32 0 -35 2 -35 30 0 28 -3 30 -35 30 -32 0 -35 -2 -35
-30 0 -27 -3 -30 -30 -30 -28 0 -30 -3 -30 -35 0 -33 -2 -35 -35 -35 -33 0
-35 2 -35 35 0 33 -2 35 -35 35 l-35 0 0 65 0 65 35 0 c33 0 35 2 35 35 l0 35
-71 0 -70 0 3 33 c3 28 7 32 36 35 l32 3 0 65 0 64 -35 0 c-33 0 -35 -2 -35
-35 0 -32 -2 -35 -30 -35 -28 0 -30 3 -30 35 0 32 2 35 30 35 28 0 30 3 30 35
l0 35 -65 0 -65 0 0 -35 0 -35 -67 0 -68 0 0 63 0 62 33 3 c29 3 32 6 32 38 0
32 2 34 35 34 33 0 35 -2 35 -36 0 -34 1 -35 33 -32 28 3 32 7 35 36 l3 32 65
0 64 0 0 35 c0 33 -2 35 -35 35 -33 0 -35 2 -35 35 0 33 2 35 35 35 32 0 35 2
35 29 0 26 -4 30 -32 33 l-33 3 -3 89 c-2 49 -1 95 2 103 4 10 37 13 136 13
l130 0 0 -35z m410 -945 c0 -28 -3 -30 -35 -30 -33 0 -35 -2 -35 -35 l0 -34
68 -3 67 -3 3 -32 3 -33 -70 0 -71 0 0 -35 c0 -33 -2 -35 -35 -35 -32 0 -35
-2 -35 -30 l0 -30 -65 0 -65 0 0 100 0 100 65 0 65 0 0 35 c0 33 2 35 35 35
32 0 35 2 35 30 0 28 3 30 35 30 32 0 35 -2 35 -30z m338 -202 l3 -98 -106 0
-105 0 0 100 0 101 103 -3 102 -3 3 -97z m-748 -3 c0 -33 2 -35 35 -35 32 0
35 -2 35 -30 0 -28 -3 -30 -35 -30 l-35 0 0 -70 0 -70 -29 0 c-26 0 -30 -4
-33 -32 -3 -29 -7 -33 -35 -36 -32 -3 -33 -2 -33 32 0 34 2 36 35 36 33 0 35
2 35 35 l0 35 -70 0 -70 0 0 65 0 65 70 0 70 0 0 35 c0 32 2 35 30 35 28 0 30
-3 30 -35z"/>
<path d="M878 1603 l-3 -68 -32 -3 -33 -3 0 -65 0 -64 35 0 c33 0 35 2 35 35
0 32 2 35 30 35 28 0 30 -3 30 -35 0 -33 2 -35 35 -35 33 0 35 2 35 35 0 33 2
35 35 35 32 0 35 2 35 30 0 28 -3 30 -35 30 -33 0 -35 2 -35 35 0 33 -2 35
-35 35 -33 0 -35 2 -35 35 0 32 -2 35 -30 35 -29 0 -29 0 -32 -67z"/>
<path d="M1550 1835 l0 -235 235 0 235 0 0 235 0 235 -235 0 -235 0 0 -235z
m400 5 l0 -170 -165 0 -165 0 0 170 0 170 165 0 165 0 0 -170z"/>
<path d="M1690 1840 l0 -100 100 0 100 0 0 100 0 100 -100 0 -100 0 0 -100z"/>
<path d="M70 355 l0 -235 235 0 235 0 0 235 0 235 -235 0 -235 0 0 -235z m400
0 l0 -165 -165 0 -165 0 0 165 0 165 165 0 165 0 0 -165z"/>
<path d="M202 358 l3 -103 100 0 100 0 0 100 0 100 -103 3 -103 3 3 -103z"/>
</g>
</svg>
